<svg id="Capa_1" enable-background="new 0 0 512 512" height="512" viewBox="0 0 512 512" width="512" xmlns="http://www.w3.org/2000/svg"><path d="m306.57 504h101.174c11.035 0 19.981-8.946 19.981-19.981v-321.524h-121.155z" fill="#19b2db"/><path d="m407.744 486h-101.174v18h101.174c11.035 0 19.981-8.946 19.981-19.981v-18c0 11.035-8.946 19.981-19.981 19.981z" fill="#17a1c1"/><path d="m369.51 55.237h-222.295l-62.94 107.258h222.295z" fill="#e0e0e0"/><path d="m306.57 504h-202.314c-11.035 0-19.981-8.946-19.981-19.981v-321.524h222.295z" fill="#73cdff"/><path d="m84.275 466.019v18c0 11.035 8.946 19.981 19.981 19.981h202.314v-18h-202.314c-11.035 0-19.981-8.946-19.981-19.981z" fill="#40c5ff"/><path d="m84.275 252.495h222.295v147.687h-222.295z" fill="#b3e8ff"/><path d="m195.423 370.267c18.798 0 34.038-16.098 34.038-35.955 0-27.511-34.038-51.903-34.038-51.903s-34.038 24.392-34.038 51.903c0 19.858 15.239 35.955 34.038 35.955z" fill="#ffeca1"/><path d="m195.423 352.267c-15.786 0-29.058-11.354-32.908-26.751-.712 2.879-1.13 5.817-1.13 8.796 0 19.858 15.239 35.955 34.038 35.955s34.038-16.098 34.038-35.955c0-2.979-.419-5.917-1.13-8.796-3.851 15.398-17.122 26.751-32.908 26.751z" fill="#ffdf85"/><path d="m306.57 252.495h121.155v147.687h-121.155z" fill="#7ed6ed" transform="matrix(-1 0 0 -1 734.295 652.676)"/><path d="m84.275 382.181h222.295v18h-222.295z" fill="#99e5ff"/><path d="m306.57 382.181h121.155v18h-121.155z" fill="#5ecfea"/><path d="m147.215 55.237h222.295v-27.256c0-11.035-8.946-19.981-19.981-19.981h-182.334c-11.035 0-19.981 8.946-19.981 19.981v27.256z" fill="#c6c6c6"/><path d="m147.215 37.237h222.295v18h-222.295z" fill="#bababa"/><path d="m427.725 162.495-58.215-107.258-62.94 107.258z" fill="#c6c6c6"/><path d="m435.533 161.515c-.102-.971-.409-1.952-.878-2.808l-57.408-105.771v-25.401c0-15.183-12.353-27.535-27.535-27.535h-182.69c-15.182 0-27.534 12.352-27.534 27.535v25.267l-62.03 105.708c-.667 1.138-1.033 2.483-1.033 3.803v322.153c0 15.182 12.352 27.535 27.535 27.535h304.082c15.182 0 27.535-12.352 27.535-27.535v-322.153c-.001-.27-.017-.536-.044-.798zm-14.986 231.434h-106.363v-132.947h106.363zm-38.153-223.122h38.152v75.146h-106.362v-75.146h38.152c4.15 0 7.515-3.365 7.515-7.515s-3.364-7.515-7.515-7.515h-32.544l49.685-84.671 45.956 84.671h-33.038c-4.15 0-7.515 3.365-7.515 7.515 0 4.151 3.364 7.515 7.514 7.515zm-290.941 0h207.701v75.146h-207.701zm59.852-107.468h40.184c4.15 0 7.515-3.365 7.515-7.515s-3.365-7.515-7.515-7.515h-36.973v-19.794c0-6.895 5.61-12.505 12.505-12.505h182.69c6.895 0 12.505 5.61 12.505 12.505v19.795h-140.668c-4.15 0-7.515 3.364-7.515 7.515s3.364 7.515 7.515 7.515h135.061l-54.243 92.439h-205.304zm-59.852 422.106v-76.487h140.5c4.15 0 7.515-3.364 7.515-7.515s-3.365-7.515-7.515-7.515h-140.5v-132.946h207.701v132.947h-37.143c-4.15 0-7.515 3.365-7.515 7.515s3.364 7.515 7.515 7.515h37.143v88.992h-195.195c-6.895 0-12.506-5.61-12.506-12.506zm316.588 12.506h-93.857v-88.992h106.363v76.487c0 6.895-5.611 12.505-12.506 12.505z"/><path d="m199.681 276.352c-2.616-1.876-6.138-1.876-8.754 0-1.521 1.09-37.242 27.045-37.242 58.113 0 24.008 18.67 43.541 41.619 43.541s41.619-19.532 41.619-43.541c0-31.067-35.721-57.023-37.242-58.113zm-4.377 86.625c-14.661 0-26.59-12.79-26.59-28.511 0-17.927 18.1-35.27 26.625-42.444 10.115 8.479 26.555 25.768 26.555 42.444 0 15.72-11.928 28.511-26.59 28.511z"/></svg>