<svg height="512" viewBox="0 0 128 128" width="512" xmlns="http://www.w3.org/2000/svg"><g><path d="m115.01 87.482v34.21h-102.02v-34.21h44.32l6.69-31.61 6.69 31.61z" fill="#f2da30"/><path d="m57.312 87.478h-51.006l6.688-31.606h51.006z" fill="#fc883a"/><path d="m70.688 87.478h51.006l-6.688-31.606h-51.006z" fill="#fc883a"/><circle cx="64" cy="26.379" fill="#3ea2e5" r="20.071"/><g><path d="m29.7 57.623h4.5a1.75 1.75 0 0 0 0-3.5h-4.5a1.75 1.75 0 0 0 0 3.5z"/><path d="m123.405 87.116-6.687-31.606a1.749 1.749 0 0 0 -1.712-1.387h-72.156a1.75 1.75 0 0 0 0 3.5h18.991l-5.947 28.106h-47.428l5.947-28.106h7.044a1.75 1.75 0 0 0 0-3.5h-8.463a1.749 1.749 0 0 0 -1.712 1.387l-6.682 31.606a1.749 1.749 0 0 0 1.712 2.113h4.937v32.463a1.749 1.749 0 0 0 1.75 1.75h102.007a1.749 1.749 0 0 0 1.75-1.75v-6.181a1.75 1.75 0 0 0 -3.5 0v4.431h-47.506v-47.348l3.227 15.247a1.748 1.748 0 0 0 1.711 1.388h42.568v18.605a1.75 1.75 0 0 0 3.5 0v-18.605h4.937a1.749 1.749 0 0 0 1.712-2.113zm-108.661 32.826v-30.713h42.568a1.748 1.748 0 0 0 1.711-1.388l3.227-15.247v47.348zm57.362-34.213-5.947-28.106h47.428l5.947 28.106z"/><path d="m108.256 63.155h-13.324a1.75 1.75 0 1 0 0 3.5h13.324a1.75 1.75 0 0 0 0-3.5z"/><path d="m87.992 63.155h-3.95a1.75 1.75 0 0 0 0 3.5h3.95a1.75 1.75 0 0 0 0-3.5z"/><path d="m64 48.2a21.821 21.821 0 1 0 -21.821-21.821 21.846 21.846 0 0 0 21.821 21.821zm0-40.142a18.321 18.321 0 1 1 -18.321 18.321 18.341 18.341 0 0 1 18.321-18.321z"/><path d="m59.7 33.3a1.749 1.749 0 0 0 2.475 0l11.644-11.651a1.749 1.749 0 0 0 -2.474-2.474l-10.412 10.411-4.278-4.277a1.749 1.749 0 1 0 -2.474 2.474z"/></g></g></svg>